<svg version="1.1" xmlns="http://www.w3.org/2000/svg" viewBox="0 0 1119.5 691.5" width="1119.5" height="691.5" filter="invert(93%) hue-rotate(180deg)">
  <!-- svg-source:excalidraw -->
  
  <defs>
    <style class="style-fonts">
      @font-face {
        font-family: "Virgil";
        src: url("https://excalidraw.com/Virgil.woff2");
      }
      @font-face {
        font-family: "Cascadia";
        src: url("https://excalidraw.com/Cascadia.woff2");
      }
    </style>
  </defs>
  <rect x="0" y="0" width="1119.5" height="691.5" fill="#ffffff"></rect><g stroke-linecap="round" transform="translate(681.5 338) rotate(0 161.5 52.499999999999986)"><path d="M28.24 -1.31 L294.96 1.12 L310.12 2.74 L317.66 6.15 L321.12 13.91 L324.54 19.54 L323.68 77.41 L320.19 91.15 L320.2 96.49 L311.23 100.81 L298.65 105.81 L28 104.99 L15.18 103.87 L11.96 99.75 L2.05 94.57 L2.04 85.11 L1.27 22.08 L4.72 12.16 L8.56 4.19 L27.89 1.47" stroke="none" stroke-width="0" fill="#40c057"></path><path d="M26.25 0 M26.25 0 C111.15 -0.24, 196.02 -1.13, 296.75 0 M26.25 0 C109.52 -1.89, 193.21 -1.56, 296.75 0 M296.75 0 C314.41 1.25, 324.62 8.1, 323 26.25 M296.75 0 C312.25 -0.52, 321.35 8.39, 323 26.25 M323 26.25 C321.38 36.18, 322.17 51.26, 323 78.75 M323 26.25 C322.52 44.54, 323.98 61.63, 323 78.75 M323 78.75 C324.66 95.06, 313.38 104.08, 296.75 105 M323 78.75 C325.26 96.24, 313.35 106.69, 296.75 105 M296.75 105 C207.4 104.62, 118.03 103.75, 26.25 105 M296.75 105 C203.45 106.96, 109.29 106.46, 26.25 105 M26.25 105 C8.48 105.17, 1.39 95.79, 0 78.75 M26.25 105 C9.18 103.34, 1.57 97.56, 0 78.75 M0 78.75 C0.2 61.64, -0.99 42.64, 0 26.25 M0 78.75 C-0.28 65.91, -1.12 54.46, 0 26.25 M0 26.25 C-0.54 8.31, 8.25 0.38, 26.25 0 M0 26.25 C-1.98 8.27, 10.13 1.21, 26.25 0" stroke="#000000" stroke-width="1" fill="none"></path></g><g stroke-linecap="round" transform="translate(681.5 230.5) rotate(0 179.5 41)"><path d="M22.11 -1.01 L341.54 -0.42 L353.29 4.67 L359.59 12.32 L360.1 21.64 L357.62 67.72 L354.98 77.36 L348.24 81.45 L338.6 81.53 L17.56 80.28 L6.96 78.65 L3.25 71.64 L0.76 60.54 L0.03 19.35 L2.13 11.4 L5.37 5.49 L12.28 2.38 L22.49 -1.31" stroke="none" stroke-width="0" fill="#12b886"></path><path d="M20.5 0 M20.5 0 C88.27 -1.25, 154.2 -2.27, 338.5 0 M20.5 0 C102.55 0.15, 183.72 0.94, 338.5 0 M338.5 0 C353.06 1.74, 357.48 6.33, 359 20.5 M338.5 0 C354.36 0.93, 361.01 6.82, 359 20.5 M359 20.5 C357.54 32.01, 358.93 48.44, 359 61.5 M359 20.5 C359.69 34.17, 358.33 46.18, 359 61.5 M359 61.5 C360.64 76.63, 352.44 83.18, 338.5 82 M359 61.5 C360.59 75.24, 353.96 82.11, 338.5 82 M338.5 82 C237.49 81.6, 133.88 81.76, 20.5 82 M338.5 82 C237.3 83.17, 134.35 83.24, 20.5 82 M20.5 82 C5.4 81.69, -1.5 73.23, 0 61.5 M20.5 82 C8.12 80.72, -2.16 74.8, 0 61.5 M0 61.5 C0.39 45.06, 1.11 32.81, 0 20.5 M0 61.5 C-0.77 48.53, 0.64 36.48, 0 20.5 M0 20.5 C-0.78 8.31, 7.47 1.7, 20.5 0 M0 20.5 C-2.02 7.49, 9 1.28, 20.5 0" stroke="#000000" stroke-width="1" fill="none"></path></g><g stroke-linecap="round" transform="translate(506.5 339.5) rotate(0 62.5 32.5)"><path d="M14.3 0.35 L106.97 1.02 L118.97 1.16 L123.65 6.05 L125.75 10.92 L124.23 49.73 L122.24 57.91 L116.28 65.28 L107.31 63.5 L14.33 64.31 L4.43 63.45 L0.36 60.56 L1.61 52.25 L0.79 10.63 L3.19 6.68 L8.25 3.74 L16.8 0.84" stroke="none" stroke-width="0" fill="#82c91e"></path><path d="M16.25 0 M16.25 0 C46.67 -0.19, 79.24 -0.85, 108.75 0 M16.25 0 C45.74 -0.08, 73.17 -0.61, 108.75 0 M108.75 0 C118.82 -0.37, 123.84 5.56, 125 16.25 M108.75 0 C118.94 -1.45, 123.05 6.9, 125 16.25 M125 16.25 C125.83 23.56, 124.25 35.4, 125 48.75 M125 16.25 C125.39 29.31, 126.03 40.86, 125 48.75 M125 48.75 C126.83 60.6, 119.39 65.37, 108.75 65 M125 48.75 C126.87 60.39, 120.48 66.76, 108.75 65 M108.75 65 C83.68 65.93, 60.97 65.47, 16.25 65 M108.75 65 C85.55 65.19, 62.77 64.3, 16.25 65 M16.25 65 C3.46 65.86, -0.42 59.15, 0 48.75 M16.25 65 C5.03 66.85, 2.16 60.97, 0 48.75 M0 48.75 C-1 40.57, 1.23 35.01, 0 16.25 M0 48.75 C0.13 42.24, 0.77 35.4, 0 16.25 M0 16.25 C-1.32 4.05, 4.95 -0.24, 16.25 0 M0 16.25 C0.84 5.1, 5.35 -1.69, 16.25 0" stroke="#000000" stroke-width="1" fill="none"></path></g><g stroke-linecap="round" transform="translate(506.5 241.5) rotate(0 62.5 32.5)"><path d="M14.28 1.53 L108.57 1.69 L119.56 2.2 L121.03 7.66 L123.15 11.1 L123.43 48.54 L120.81 59.74 L116.96 62.85 L107.48 63.83 L15.68 64.53 L6.66 64.48 L3.06 58.72 L-1.7 52.64 L0.97 10.49 L2.63 4.57 L7.37 2.6 L15.12 0.93" stroke="none" stroke-width="0" fill="#12b886"></path><path d="M16.25 0 M16.25 0 C41.84 1.68, 68.48 -0.04, 108.75 0 M16.25 0 C45.21 -0.29, 75.32 -0.29, 108.75 0 M108.75 0 C120.32 -1.93, 126.91 6.77, 125 16.25 M108.75 0 C119.23 0.62, 122.91 6.46, 125 16.25 M125 16.25 C125.86 27.38, 126.19 36.09, 125 48.75 M125 16.25 C124.44 28.15, 124.88 41.2, 125 48.75 M125 48.75 C124.69 61.01, 119.13 63.74, 108.75 65 M125 48.75 C123.26 58.71, 119.16 63.67, 108.75 65 M108.75 65 C78.65 65.7, 51.48 64.77, 16.25 65 M108.75 65 C82.84 64.8, 58.58 65.14, 16.25 65 M16.25 65 C4.59 65.18, 1.24 61.04, 0 48.75 M16.25 65 C4.78 67.11, 1.16 59.36, 0 48.75 M0 48.75 C0.51 39.93, -0.9 28.3, 0 16.25 M0 48.75 C0.96 40.02, -0.46 31.26, 0 16.25 M0 16.25 C-0.19 5.23, 5.97 0.45, 16.25 0 M0 16.25 C-1.4 3.16, 6.41 -0.48, 16.25 0" stroke="#000000" stroke-width="1" fill="none"></path></g><g stroke-linecap="round" transform="translate(628 36) rotate(0 116.5 70)"><path d="M33.39 -0.94 L200.56 -1.65 L209.42 1.25 L221.83 3.09 L227.39 13.48 L230.44 19.22 L233.14 30.29 L232.07 108.21 L231.23 117.02 L228.14 126.25 L220.41 135.29 L215.78 137.37 L199.19 140.48 L32.34 141.83 L23.76 138.77 L12.88 136.72 L2.56 125.62 L1.69 117.37 L1.22 23.76 L1.27 17.42 L6.62 7.22 L19.35 0.77 L30.33 -1.2" stroke="none" stroke-width="0" fill="#228be6"></path><path d="M32 0 M32 0 C69.94 -0.24, 106.68 1.91, 201 0 M32 0 C94.71 -0.95, 157.82 -1.03, 201 0 M201 0 C221.98 -0.92, 231.31 10.78, 233 32 M201 0 C222.13 -1.64, 235.07 11.98, 233 32 M233 32 C231.37 58.28, 232.45 85.33, 233 108 M233 32 C234.3 49.34, 232.97 65.69, 233 108 M233 108 C232.43 129.07, 223.18 138.49, 201 140 M233 108 C235.02 128.66, 224.1 141.24, 201 140 M201 140 C133.71 139.58, 69.07 139.33, 32 140 M201 140 C165.54 142.57, 130.95 142, 32 140 M32 140 C11.98 138.96, 0.07 127.52, 0 108 M32 140 C10.43 138.52, -1.5 128.09, 0 108 M0 108 C0.66 90.9, 0.55 72.24, 0 32 M0 108 C-0.45 79.18, 0.56 51.44, 0 32 M0 32 C-0.72 10.18, 10.32 -1.32, 32 0 M0 32 C1.14 12.92, 10 1.72, 32 0" stroke="#000000" stroke-width="1" fill="none"></path></g><g transform="translate(10 323) rotate(0 105.2599105834961 12)"><text x="0" y="0" font-family="Virgil, Segoe UI Emoji" font-size="20px" fill="#000000" text-anchor="start" style="white-space: pre;" direction="ltr" dominant-baseline="text-before-edge">Estructura de datos</text></g><g transform="translate(257.7400894165039 227) rotate(0 42.309967041015625 12)"><text x="0" y="0" font-family="Virgil, Segoe UI Emoji" font-size="20px" fill="#000000" text-anchor="start" style="white-space: pre;" direction="ltr" dominant-baseline="text-before-edge">Internas</text></g><g transform="translate(256.6900329589844 414) rotate(0 44.549964904785156 12)"><text x="0" y="0" font-family="Virgil, Segoe UI Emoji" font-size="20px" fill="#000000" text-anchor="start" style="white-space: pre;" direction="ltr" dominant-baseline="text-before-edge">Externas</text></g><g transform="translate(394.6900329589844 161) rotate(0 48.38995361328125 12)"><text x="0" y="0" font-family="Virgil, Segoe UI Emoji" font-size="20px" fill="#000000" text-anchor="start" style="white-space: pre;" direction="ltr" dominant-baseline="text-before-edge">Estáticas</text></g><g transform="translate(384.61004638671875 288) rotate(0 45.90995788574219 12)"><text x="0" y="0" font-family="Virgil, Segoe UI Emoji" font-size="20px" fill="#000000" text-anchor="start" style="white-space: pre;" direction="ltr" dominant-baseline="text-before-edge">Dinámicas</text></g><g transform="translate(648.0900421142578 46) rotate(0 99.59989166259766 60)"><text x="0" y="0" font-family="Virgil, Segoe UI Emoji" font-size="20px" fill="#000000" text-anchor="start" style="white-space: pre;" direction="ltr" dominant-baseline="text-before-edge">-Arreglos (array)</text><text x="0" y="24" font-family="Virgil, Segoe UI Emoji" font-size="20px" fill="#000000" text-anchor="start" style="white-space: pre;" direction="ltr" dominant-baseline="text-before-edge">-Matrices</text><text x="0" y="48" font-family="Virgil, Segoe UI Emoji" font-size="20px" fill="#000000" text-anchor="start" style="white-space: pre;" direction="ltr" dominant-baseline="text-before-edge">-Registros (structs)</text><text x="0" y="72" font-family="Virgil, Segoe UI Emoji" font-size="20px" fill="#000000" text-anchor="start" style="white-space: pre;" direction="ltr" dominant-baseline="text-before-edge">-Enumeración (enum)</text><text x="0" y="96" font-family="Virgil, Segoe UI Emoji" font-size="20px" fill="#000000" text-anchor="start" style="white-space: pre;" direction="ltr" dominant-baseline="text-before-edge">-Constantes (const)</text></g><g transform="translate(523.6100387573242 262) rotate(0 38.51996612548828 12)"><text x="0" y="0" font-family="Virgil, Segoe UI Emoji" font-size="20px" fill="#000000" text-anchor="start" style="white-space: pre;" direction="ltr" dominant-baseline="text-before-edge">Lineales</text></g><g transform="translate(514.4800338745117 362) rotate(0 52.13995361328125 12)"><text x="0" y="0" font-family="Virgil, Segoe UI Emoji" font-size="20px" fill="#000000" text-anchor="start" style="white-space: pre;" direction="ltr" dominant-baseline="text-before-edge">No lineales</text></g><g transform="translate(707.8600463867188 236) rotate(0 154.4698486328125 36)"><text x="0" y="0" font-family="Virgil, Segoe UI Emoji" font-size="20px" fill="#000000" text-anchor="start" style="white-space: pre;" direction="ltr" dominant-baseline="text-before-edge">-Listas enlazadas (linked lists)</text><text x="0" y="24" font-family="Virgil, Segoe UI Emoji" font-size="20px" fill="#000000" text-anchor="start" style="white-space: pre;" direction="ltr" dominant-baseline="text-before-edge">-Pilas (stacks)</text><text x="0" y="48" font-family="Virgil, Segoe UI Emoji" font-size="20px" fill="#000000" text-anchor="start" style="white-space: pre;" direction="ltr" dominant-baseline="text-before-edge">-Colas (queues)</text></g><g transform="translate(703.6400299072266 360) rotate(0 136.04989624023438 36)"><text x="0" y="0" font-family="Virgil, Segoe UI Emoji" font-size="20px" fill="#000000" text-anchor="start" style="white-space: pre;" direction="ltr" dominant-baseline="text-before-edge">-Árboles (binary trees)</text><text x="0" y="24" font-family="Virgil, Segoe UI Emoji" font-size="20px" fill="#000000" text-anchor="start" style="white-space: pre;" direction="ltr" dominant-baseline="text-before-edge">-Grafos (grapghs)</text><text x="0" y="48" font-family="Virgil, Segoe UI Emoji" font-size="20px" fill="#000000" text-anchor="start" style="white-space: pre;" direction="ltr" dominant-baseline="text-before-edge">-Tablas hash (hash tables)</text></g><g transform="translate(431.86004638671875 469) rotate(0 39.2099609375 24)"><text x="0" y="0" font-family="Virgil, Segoe UI Emoji" font-size="20px" fill="#000000" text-anchor="start" style="white-space: pre;" direction="ltr" dominant-baseline="text-before-edge">Archivos</text><text x="0" y="24" font-family="Virgil, Segoe UI Emoji" font-size="20px" fill="#000000" text-anchor="start" style="white-space: pre;" direction="ltr" dominant-baseline="text-before-edge"></text></g><g stroke-linecap="round"><g transform="translate(382.9303980667145 472.4753338629753) rotate(0 19.563323251763393 5.1132389852963485)"><path d="M-0.16 0.1 C6.54 1.81, 34.1 8.22, 40.83 9.73 M-1.71 -0.89 C4.86 1.04, 33.44 9.3, 40.32 11.12" stroke="#000000" stroke-width="1" fill="none"></path></g></g><mask></mask><g transform="translate(391.2801513671875 615) rotate(0 169.60986328125 12)"><text x="0" y="0" font-family="Virgil, Segoe UI Emoji" font-size="20px" fill="#000000" text-anchor="start" style="white-space: pre;" direction="ltr" dominant-baseline="text-before-edge">Formatos de intercambio de datos</text></g><g transform="translate(418.2801513671875 539) rotate(0 80.4099349975586 24)"><text x="0" y="0" font-family="Virgil, Segoe UI Emoji" font-size="20px" fill="#000000" text-anchor="start" style="white-space: pre;" direction="ltr" dominant-baseline="text-before-edge">Bases de datos</text><text x="0" y="24" font-family="Virgil, Segoe UI Emoji" font-size="20px" fill="#000000" text-anchor="start" style="white-space: pre;" direction="ltr" dominant-baseline="text-before-edge"></text></g><g stroke-linecap="round"><g transform="translate(352.43667674823644 456.38676101470367) rotate(0 27.436091067269444 38.51491841970943)"><path d="M-0.91 -0.73 C8.34 12.03, 46.51 63.68, 55.78 76.84 M0.81 1.5 C9.95 14.33, 46.41 64.73, 55.24 77.76" stroke="#000000" stroke-width="1" fill="none"></path></g></g><mask></mask><g stroke-linecap="round"><g transform="translate(373.06390893273044 501.98508158029057) rotate(0 6.791078440472461 51.66569572500883)"><path d="M-1.1 0.36 C1.49 17.32, 12.23 85.51, 14.68 102.53 M0.52 -0.5 C3.09 16.56, 12.07 86.49, 14.09 103.83" stroke="#000000" stroke-width="1" fill="none"></path></g></g><mask></mask><g stroke-linecap="round" transform="translate(524.5 452) rotate(0 102.5 29)"><path d="M13.28 1.54 L197.11 1.27 L202.58 4.52 L206.76 11.8 L205.34 48.88 L198.78 54.28 L190.96 57.53 L7.23 56.77 L2.26 53.59 L-1.25 46.41 L0.01 9.33 L2.69 4.5 L3.79 4.01 L14.03 -1.05" stroke="none" stroke-width="0" fill="#228be6"></path><path d="M14.5 0 M14.5 0 C67.57 -0.3, 121.46 1.34, 190.5 0 M14.5 0 C68.81 -1.17, 124.03 -0.15, 190.5 0 M190.5 0 C201.14 -0.78, 205.81 3.57, 205 14.5 M190.5 0 C199.66 0.76, 206.43 5.1, 205 14.5 M205 14.5 C205.3 21.6, 203.4 27.65, 205 43.5 M205 14.5 C204.67 21.54, 204.02 26.82, 205 43.5 M205 43.5 C203.55 51.18, 201.91 56.99, 190.5 58 M205 43.5 C206.48 52.37, 201.32 58.11, 190.5 58 M190.5 58 C128.8 57.57, 66.73 58.82, 14.5 58 M190.5 58 C134.47 57.25, 80.53 57.18, 14.5 58 M14.5 58 C4.35 58.87, -0.42 51.29, 0 43.5 M14.5 58 C5.16 58.05, -1.97 54.96, 0 43.5 M0 43.5 C-1.68 35, -1.35 28.93, 0 14.5 M0 43.5 C0.96 31.9, 1.04 21.45, 0 14.5 M0 14.5 C0.15 6.08, 3.13 0.31, 14.5 0 M0 14.5 C2.2 3.72, 4.3 0.14, 14.5 0" stroke="#000000" stroke-width="1" fill="none"></path></g><g transform="translate(548.1300582885742 457) rotate(0 78.86994171142578 24)"><text x="78.86994171142578" y="0" font-family="Virgil, Segoe UI Emoji" font-size="20px" fill="#000000" text-anchor="middle" style="white-space: pre;" direction="ltr" dominant-baseline="text-before-edge">Almacenamiento </text><text x="78.86994171142578" y="24" font-family="Virgil, Segoe UI Emoji" font-size="20px" fill="#000000" text-anchor="middle" style="white-space: pre;" direction="ltr" dominant-baseline="text-before-edge">(Dispositivos)</text></g><g stroke-linecap="round" transform="translate(590.5 524) rotate(0 184.5 31.5)"><path d="M15.7 1 L356.5 -1.02 L366.81 5.33 L368.29 6.9 L368.15 50.16 L366.51 57.38 L360.53 61.12 L354.67 64.09 L10.53 61.73 L7.95 60.92 L0.54 54.15 L1.36 15.31 L0.81 9.54 L2.08 3.64 L8.51 -0.26 L15.12 -0.77" stroke="none" stroke-width="0" fill="#15aabf"></path><path d="M15.75 0 M15.75 0 C145.12 0.93, 272.05 -0.63, 353.25 0 M15.75 0 C89.23 2.43, 164.33 1.81, 353.25 0 M353.25 0 C364.02 -0.2, 369.7 6.28, 369 15.75 M353.25 0 C362.61 -0.34, 366.79 5.28, 369 15.75 M369 15.75 C369.37 24.68, 368.36 32.2, 369 47.25 M369 15.75 C368.55 22.85, 368.34 29.54, 369 47.25 M369 47.25 C370.36 57.61, 364.32 63.87, 353.25 63 M369 47.25 C371.19 59.38, 362.73 61.23, 353.25 63 M353.25 63 C259.14 62.86, 162.24 63.32, 15.75 63 M353.25 63 C267.2 64.69, 181.82 64.98, 15.75 63 M15.75 63 C5.25 62.65, 1.95 55.89, 0 47.25 M15.75 63 C4.63 61, -2.01 59.69, 0 47.25 M0 47.25 C-0.76 41.03, -0.78 30.58, 0 15.75 M0 47.25 C-0.13 39.49, -0.78 30.8, 0 15.75 M0 15.75 C1.82 4.98, 5.52 -0.01, 15.75 0 M0 15.75 C-1.59 6.74, 7.13 -0.05, 15.75 0" stroke="#000000" stroke-width="1" fill="none"></path></g><g transform="translate(598.3601379394531 531.5) rotate(0 176.63986206054688 24)"><text x="176.63986206054688" y="0" font-family="Virgil, Segoe UI Emoji" font-size="20px" fill="#000000" text-anchor="middle" style="white-space: pre;" direction="ltr" dominant-baseline="text-before-edge">- SQL (Structured Query Language)</text><text x="176.63986206054688" y="24" font-family="Virgil, Segoe UI Emoji" font-size="20px" fill="#000000" text-anchor="middle" style="white-space: pre;" direction="ltr" dominant-baseline="text-before-edge">- NoSQL (Not Only SQL)</text></g><g stroke-linecap="round" transform="translate(755.5 599.5) rotate(0 57 41)"><path d="M18.97 -1.03 L94.02 -0.98 L103.13 1.44 L109.44 3.53 L112.88 11.54 L115.1 21.58 L113.83 67.39 L109.56 75.35 L100.55 80.9 L92.67 83.23 L20.18 80.28 L11.21 81.92 L6.11 75.5 L-1.05 67.79 L-1.4 16.34 L2.59 6.39 L6.17 0.89 L20.38 -0.59" stroke="none" stroke-width="0" fill="#12b886"></path><path d="M20.5 0 M20.5 0 C41.81 -0.4, 61.02 0.05, 93.5 0 M20.5 0 C43.41 1.08, 63.84 0.59, 93.5 0 M93.5 0 C107.05 -0.16, 112.28 7.21, 114 20.5 M93.5 0 C106 -1.2, 113.53 7.88, 114 20.5 M114 20.5 C112.32 35.4, 115.56 53.63, 114 61.5 M114 20.5 C113.22 33.62, 114.88 47.06, 114 61.5 M114 61.5 C115.82 74.32, 105.3 82.5, 93.5 82 M114 61.5 C112.72 74.52, 108.33 84.1, 93.5 82 M93.5 82 C74.19 83.23, 55.22 80, 20.5 82 M93.5 82 C72 80.98, 49.77 80.46, 20.5 82 M20.5 82 C7.09 83.14, -0.38 76.35, 0 61.5 M20.5 82 C6.55 83.66, -1.33 76.77, 0 61.5 M0 61.5 C-1.8 49.1, 0.78 33.84, 0 20.5 M0 61.5 C0.76 49.8, 0.61 39.61, 0 20.5 M0 20.5 C-0.18 6.72, 6.84 -1.06, 20.5 0 M0 20.5 C-1.37 8.73, 6.37 0.12, 20.5 0" stroke="#000000" stroke-width="1" fill="none"></path></g><g transform="translate(777.2700271606445 604.5) rotate(0 35.22997283935547 36)"><text x="35.22997283935547" y="0" font-family="Virgil, Segoe UI Emoji" font-size="20px" fill="#000000" text-anchor="middle" style="white-space: pre;" direction="ltr" dominant-baseline="text-before-edge">- JSON</text><text x="35.22997283935547" y="24" font-family="Virgil, Segoe UI Emoji" font-size="20px" fill="#000000" text-anchor="middle" style="white-space: pre;" direction="ltr" dominant-baseline="text-before-edge">- XML</text><text x="35.22997283935547" y="48" font-family="Virgil, Segoe UI Emoji" font-size="20px" fill="#000000" text-anchor="middle" style="white-space: pre;" direction="ltr" dominant-baseline="text-before-edge">- CSV</text></g><g stroke-linecap="round"><g transform="translate(202 361) rotate(0 20.04756568267942 24.02472059868277)"><path d="M0.54 0.11 C7.45 7.96, 33.98 39.71, 40.73 47.94 M-0.63 -0.88 C6.24 7.01, 33.25 40.88, 40.16 48.93" stroke="#000000" stroke-width="1" fill="none"></path></g><g transform="translate(202 361) rotate(0 20.04756568267942 24.02472059868277)"><path d="M14.5 34.91 C18.92 39.02, 27.76 41.6, 39.71 48.53 M14.85 34.54 C22.11 38.31, 29.98 42.42, 39.57 49.75" stroke="#000000" stroke-width="1" fill="none"></path></g><g transform="translate(202 361) rotate(0 20.04756568267942 24.02472059868277)"><path d="M30.33 21.86 C31.01 29.2, 36.01 34.95, 39.71 48.53 M30.68 21.49 C33.26 29.13, 36.37 37.18, 39.57 49.75" stroke="#000000" stroke-width="1" fill="none"></path></g></g><mask></mask><g stroke-linecap="round"><g transform="translate(196.9524343173207 306.97527940131727) rotate(0 24.369895241716847 -22.998757930472493)"><path d="M-0.19 0.67 C8.26 -7.08, 42.22 -38.83, 50.49 -46.66 M-1.75 -0.03 C6.6 -7.61, 41.45 -37.94, 49.8 -45.47" stroke="#000000" stroke-width="1" fill="none"></path></g><g transform="translate(196.9524343173207 306.97527940131727) rotate(0 24.369895241716847 -22.998757930472493)"><path d="M36.59 -18.3 C38.48 -27.54, 43.06 -35.82, 49.86 -45.63 M34.9 -18.89 C40.88 -28.84, 44.86 -37.32, 49.92 -45.24" stroke="#000000" stroke-width="1" fill="none"></path></g><g transform="translate(196.9524343173207 306.97527940131727) rotate(0 24.369895241716847 -22.998757930472493)"><path d="M22.99 -33.67 C28.72 -38.53, 37.16 -42.44, 49.86 -45.63 M21.31 -34.27 C31.73 -39.12, 40.28 -42.43, 49.92 -45.24" stroke="#000000" stroke-width="1" fill="none"></path></g></g><mask></mask><g stroke-linecap="round"><g transform="translate(318.6301047582831 221.9987579304725) rotate(0 28.464133854964757 -18.231503720954052)"><path d="M0.55 0.27 C10 -5.72, 48 -30.76, 57.55 -36.73 M-0.62 -0.64 C8.64 -6.42, 47.21 -29.4, 56.89 -35.57" stroke="#000000" stroke-width="1" fill="none"></path></g><g transform="translate(318.6301047582831 221.9987579304725) rotate(0 28.464133854964757 -18.231503720954052)"><path d="M38.68 -11.16 C44.12 -19.54, 53 -30.75, 56.45 -35.18 M39.02 -12.68 C42.63 -18.07, 45.8 -21.65, 56.9 -35.14" stroke="#000000" stroke-width="1" fill="none"></path></g><g transform="translate(318.6301047582831 221.9987579304725) rotate(0 28.464133854964757 -18.231503720954052)"><path d="M27.94 -28.65 C37.26 -30.57, 50.13 -35.28, 56.45 -35.18 M28.28 -30.17 C34.09 -31.73, 39.57 -31.54, 56.9 -35.14" stroke="#000000" stroke-width="1" fill="none"></path></g></g><mask></mask><g stroke-linecap="round"><g transform="translate(320.53586614503513 262.23150372095404) rotate(0 25.24309181780552 16.245137291392318)"><path d="M0.4 0.8 C9 6.06, 42.75 26.93, 51.33 32.32 M-0.84 0.17 C7.64 4.99, 41.82 25.17, 50.56 30.37" stroke="#000000" stroke-width="1" fill="none"></path></g><g transform="translate(320.53586614503513 262.23150372095404) rotate(0 25.24309181780552 16.245137291392318)"><path d="M22.4 25.38 C29.89 27.73, 39.47 29.16, 51.03 31.85 M20.99 24.48 C32.39 26.83, 41.78 29.2, 51.35 29.43" stroke="#000000" stroke-width="1" fill="none"></path></g><g transform="translate(320.53586614503513 262.23150372095404) rotate(0 25.24309181780552 16.245137291392318)"><path d="M32.85 7.73 C37.53 15.05, 44.18 21.42, 51.03 31.85 M31.45 6.82 C39.08 15.45, 44.69 24.2, 51.35 29.43" stroke="#000000" stroke-width="1" fill="none"></path></g></g><mask></mask><g stroke-linecap="round"><g transform="translate(504.53586614503513 154.23150372095404) rotate(0 54.25125804133711 -22.681668191859494)"><path d="M-0.6 -0.42 C17.6 -7.8, 90.65 -35.87, 109.1 -43.23 M1.29 -1.68 C19.35 -8.89, 90.11 -37.97, 108.2 -44.94" stroke="#000000" stroke-width="1" fill="none"></path></g><g transform="translate(504.53586614503513 154.23150372095404) rotate(0 54.25125804133711 -22.681668191859494)"><path d="M85.14 -24.79 C93.5 -28.91, 97.84 -38.16, 109.1 -46.8 M85.49 -24.74 C91.59 -29.92, 98.24 -36.6, 108.88 -44.93" stroke="#000000" stroke-width="1" fill="none"></path></g><g transform="translate(504.53586614503513 154.23150372095404) rotate(0 54.25125804133711 -22.681668191859494)"><path d="M77.52 -43.84 C88.28 -42.35, 94.86 -46.01, 109.1 -46.8 M77.87 -43.79 C85.84 -43.94, 94.52 -45.55, 108.88 -44.93" stroke="#000000" stroke-width="1" fill="none"></path></g></g><mask></mask><g stroke-linecap="round"><g transform="translate(475.7569081821945 326.7548627086077) rotate(0 13.353467599311841 12.298117936607458)"><path d="M0.41 -0.12 C5.11 4.22, 23.06 20.39, 27.53 24.88 M-0.83 -1.23 C3.72 3.32, 21.24 21.47, 26.34 25.82" stroke="#000000" stroke-width="1" fill="none"></path></g><g transform="translate(475.7569081821945 326.7548627086077) rotate(0 13.353467599311841 12.298117936607458)"><path d="M8.64 17.45 C11.31 18.88, 18.72 20.24, 26.45 26.32 M9.52 17.58 C13.55 20.29, 18.19 22.76, 26.52 26.55" stroke="#000000" stroke-width="1" fill="none"></path></g><g transform="translate(475.7569081821945 326.7548627086077) rotate(0 13.353467599311841 12.298117936607458)"><path d="M17.64 7.98 C17.99 11.79, 23.16 15.5, 26.45 26.32 M18.52 8.11 C20.33 13.25, 22.74 18.07, 26.52 26.55" stroke="#000000" stroke-width="1" fill="none"></path></g></g><mask></mask><g stroke-linecap="round"><g transform="translate(475.14653240068833 279.70188206339253) rotate(0 11.613236387912139 -6.776871963217847)"><path d="M0.3 -0.27 C3.86 -2.47, 18.25 -11.08, 22.03 -13.29 M-1.01 -1.45 C2.86 -3.47, 20.36 -10.06, 24.23 -11.9" stroke="#000000" stroke-width="1" fill="none"></path></g><g transform="translate(475.14653240068833 279.70188206339253) rotate(0 11.613236387912139 -6.776871963217847)"><path d="M14.23 -4.01 C17.66 -6.15, 20.85 -8.02, 25.09 -13.2 M14.36 -3.28 C17.25 -5.3, 20.12 -8.56, 24.21 -12.09" stroke="#000000" stroke-width="1" fill="none"></path></g><g transform="translate(475.14653240068833 279.70188206339253) rotate(0 11.613236387912139 -6.776871963217847)"><path d="M10.75 -12.35 C15.41 -11.54, 19.84 -10.44, 25.09 -13.2 M10.88 -11.62 C14.72 -11.21, 18.61 -12.03, 24.21 -12.09" stroke="#000000" stroke-width="1" fill="none"></path></g></g><mask></mask><g stroke-linecap="round"><g transform="translate(642.3867636120879 270.77687196321784) rotate(0 12.790183019796473 -0.9848070818930754)"><path d="M0.07 0.31 C4.65 -0.24, 22.37 -1.96, 26.93 -2.28 M-1.35 -0.57 C3.12 -0.42, 21.24 -0.37, 25.95 -0.89" stroke="#000000" stroke-width="1" fill="none"></path></g><g transform="translate(642.3867636120879 270.77687196321784) rotate(0 12.790183019796473 -0.9848070818930754)"><path d="M13.81 4.24 C16.25 3.47, 20.18 1.69, 25.78 -0.97 M13.5 4.84 C19.1 1.9, 23.47 0.18, 26.46 -1.56" stroke="#000000" stroke-width="1" fill="none"></path></g><g transform="translate(642.3867636120879 270.77687196321784) rotate(0 12.790183019796473 -0.9848070818930754)"><path d="M13.38 -5.01 C16.01 -3.44, 20.05 -2.88, 25.78 -0.97 M13.07 -4.41 C18.77 -3.67, 23.31 -1.71, 26.46 -1.56" stroke="#000000" stroke-width="1" fill="none"></path></g></g><mask></mask><g stroke-linecap="round"><g transform="translate(641.2098169802034 377.9848070818931) rotate(0 13.659868118707095 -0.8714227670524153)"><path d="M0.48 1.06 C4.89 0.94, 21.48 -0.57, 25.91 -1.13 M-0.73 0.57 C4.09 0.15, 23.55 -2.51, 28.05 -2.8" stroke="#000000" stroke-width="1" fill="none"></path></g><g transform="translate(641.2098169802034 377.9848070818931) rotate(0 13.659868118707095 -0.8714227670524153)"><path d="M17.09 1.92 C19.94 1.65, 21.65 1.46, 28.86 -2.94 M15.58 3.35 C19.18 0.89, 22.51 0.16, 28.18 -3.36" stroke="#000000" stroke-width="1" fill="none"></path></g><g transform="translate(641.2098169802034 377.9848070818931) rotate(0 13.659868118707095 -0.8714227670524153)"><path d="M16.11 -7.28 C19.18 -5.25, 21.13 -3.13, 28.86 -2.94 M14.59 -5.86 C18.53 -5.7, 22.14 -3.8, 28.18 -3.36" stroke="#000000" stroke-width="1" fill="none"></path></g></g><mask></mask><g stroke-linecap="round"><g transform="translate(835.7487419586632 69.6816681918595) rotate(0 27.382589965909688 -3.8122876623025235)"><path d="M0.02 -0.95 C9.39 -2.57, 47 -7.46, 56.2 -8.79 M-1.43 1.17 C7.8 -0.38, 45.5 -6.04, 55.35 -7.57" stroke="#000000" stroke-width="1" fill="none"></path></g><g transform="translate(835.7487419586632 69.6816681918595) rotate(0 27.382589965909688 -3.8122876623025235)"><path d="M28.94 6.34 C36.84 0.64, 44.03 -0.15, 56.1 -6.15 M30.08 5.45 C37.33 2.79, 42.83 -1.66, 54.66 -7" stroke="#000000" stroke-width="1" fill="none"></path></g><g transform="translate(835.7487419586632 69.6816681918595) rotate(0 27.382589965909688 -3.8122876623025235)"><path d="M26.02 -12.8 C34.94 -12.79, 43 -7.87, 56.1 -6.15 M27.16 -13.68 C34.97 -11.64, 41.19 -11.38, 54.66 -7" stroke="#000000" stroke-width="1" fill="none"></path></g></g><mask></mask><g stroke-linecap="round" transform="translate(904.5 10) rotate(0 102.5 41)"><path d="M21.97 0.11 L185.7 -0.27 L194.18 0.63 L200.15 6.44 L204.21 14.82 L205.95 62.46 L203.01 69.75 L198 77.49 L186.19 81.89 L22.02 80.47 L10.21 79.96 L3.71 75.4 L-1.18 66.13 L0.88 16.25 L2.54 6.39 L7.64 3.36 L21.47 -0.15" stroke="none" stroke-width="0" fill="#fa5252"></path><path d="M20.5 0 M20.5 0 C70.95 2.23, 123.75 1.03, 184.5 0 M20.5 0 C72.6 -0.68, 124.87 -0.71, 184.5 0 M184.5 0 C199.67 1.26, 205.54 8.39, 205 20.5 M184.5 0 C197.46 -1.1, 205.55 5.3, 205 20.5 M205 20.5 C204.17 33.54, 205.94 45.85, 205 61.5 M205 20.5 C206.15 32.39, 204.59 46.58, 205 61.5 M205 61.5 C203 75.55, 197.38 83.98, 184.5 82 M205 61.5 C202.97 77.4, 199.76 79.87, 184.5 82 M184.5 82 C131.45 80.22, 77.2 82.61, 20.5 82 M184.5 82 C151.05 83.27, 118.05 81.89, 20.5 82 M20.5 82 C5.73 82.49, -1.21 76.23, 0 61.5 M20.5 82 C7.84 80.92, -0.83 75.64, 0 61.5 M0 61.5 C1.42 50.99, -1.75 38.3, 0 20.5 M0 61.5 C-0.33 44.72, 0.07 28.85, 0 20.5 M0 20.5 C-1.82 4.84, 8.81 -1.38, 20.5 0 M0 20.5 C0.03 8.33, 7.08 1.25, 20.5 0" stroke="#000000" stroke-width="1" fill="none"></path></g><g transform="translate(916.7000961303711 15) rotate(0 90.2999038696289 36)"><text x="90.2999038696289" y="0" font-family="Virgil, Segoe UI Emoji" font-size="20px" fill="#000000" text-anchor="middle" style="white-space: pre;" direction="ltr" dominant-baseline="text-before-edge">Vectores:</text><text x="90.2999038696289" y="24" font-family="Virgil, Segoe UI Emoji" font-size="20px" fill="#000000" text-anchor="middle" style="white-space: pre;" direction="ltr" dominant-baseline="text-before-edge">-Unidimensional</text><text x="90.2999038696289" y="48" font-family="Virgil, Segoe UI Emoji" font-size="20px" fill="#000000" text-anchor="middle" style="white-space: pre;" direction="ltr" dominant-baseline="text-before-edge">-Multidimensionales</text></g><g stroke-linecap="round"><g transform="translate(822 45) rotate(0 -0.08554005629446237 20.327047751098874)"><path d="M0.52 0.85 C0.48 7.58, 0.52 34.08, 0.1 40.4 M-0.66 0.25 C-0.8 6.61, -0.44 31.95, -0.28 38.49" stroke="#000000" stroke-width="1" fill="none"></path></g></g><mask></mask></svg>